<?xml version="1.0" encoding="UTF-8" standalone="no"?>
<svg
   xmlns:dc="http://purl.org/dc/elements/1.1/"
   xmlns:cc="http://creativecommons.org/ns#"
   xmlns:rdf="http://www.w3.org/1999/02/22-rdf-syntax-ns#"
   xmlns:svg="http://www.w3.org/2000/svg"
   xmlns="http://www.w3.org/2000/svg"
   xmlns:sodipodi="http://sodipodi.sourceforge.net/DTD/sodipodi-0.dtd"
   xmlns:inkscape="http://www.inkscape.org/namespaces/inkscape"
   version="1.0"
   width="180"
   height="180"
   viewBox="0 0 1800 1800"
   preserveAspectRatio="xMidYMid meet"
   id="svg8"
   sodipodi:docname="s.svg"
   inkscape:version="0.92.2 5c3e80d, 2017-08-06">
  <metadata
     id="metadata14">
    <rdf:RDF>
      <cc:Work
         rdf:about="">
        <dc:format>image/svg+xml</dc:format>
        <dc:type
           rdf:resource="http://purl.org/dc/dcmitype/StillImage" />
        <dc:title />
      </cc:Work>
    </rdf:RDF>
  </metadata>
  <defs
     id="defs12" />
  <sodipodi:namedview
     pagecolor="#ffffff"
     bordercolor="#666666"
     borderopacity="1"
     objecttolerance="10"
     gridtolerance="10"
     guidetolerance="10"
     inkscape:pageopacity="0"
     inkscape:pageshadow="2"
     inkscape:window-width="1186"
     inkscape:window-height="691"
     id="namedview10"
     showgrid="false"
     inkscape:zoom="2.1570681"
     inkscape:cx="65.35654"
     inkscape:cy="115.10189"
     inkscape:window-x="0"
     inkscape:window-y="0"
     inkscape:window-maximized="0"
     inkscape:current-layer="svg8"
     fit-margin-top="0"
     fit-margin-left="0"
     fit-margin-right="0"
     fit-margin-bottom="0"
     inkscape:measure-start="53.7767,80.665"
     inkscape:measure-end="0,0" />
  <path
     style="fill:#285afa;fill-opacity:1;stroke:none"
     inkscape:connector-curvature="0"
     id="path5"
     d="m 1098.6454,768.36408 c 173,-428 219,-546 212,-553 -5,-5 -108,-48 -229,-97 C 873.64544,35.364078 857.64544,30.364078 786.64544,30.364078 c -129,0 -234,66 -289,184.000002 -34,74 -37,192 -5,262 27,59 76,114 130,145 53,31 421.99996,184 443.99996,184 10,0 23,-15 32,-37 z" />
  <rect
     style="fill:#285afa;fill-opacity:1;stroke-width:7.84690905"
     id="rect3711"
     width="185.52609"
     height="185.52602"
     x="-1947.3457"
     y="365.81665"
     transform="rotate(-120)" />
  <rect
     transform="scale(-1)"
     y="-1741.9329"
     x="-1283.3628"
     height="180.80089"
     width="171.52916"
     id="rect4527"
     style="fill:#285afa;fill-opacity:1;stroke-width:7.44840002" />
  <rect
     style="fill:#285afa;fill-opacity:1;stroke-width:6.74211931"
     id="rect4529"
     width="159.40532"
     height="159.40523"
     x="-1734.6627"
     y="106.79622"
     transform="matrix(-0.69979875,-0.71434005,0.69979875,-0.71434005,0,0)" />
</svg>
